<svg width="100%" height="100%" viewBox="0 0 171 146" version="1.1" xmlns="http://www.w3.org/2000/svg" xmlns:xlink="http://www.w3.org/1999/xlink" xml:space="preserve" xmlns:serif="http://www.serif.com/" style="fill-rule:evenodd;clip-rule:evenodd;stroke-linejoin:round;stroke-miterlimit:2;"><g><path d="M169.195,79.03c-0.015,0.176 -0.015,0.353 0,0.53c-0.15,1.773 -0.511,3.523 -1.075,5.214c-1.992,6.604 -6.109,12.39 -11.731,16.483c-5.622,4.093 -12.443,6.272 -19.432,6.208l-1.364,0l-0.331,0.53c-1.579,3.263 -3.374,6.42 -5.373,9.451c-1.77,2.652 -3.805,5.123 -6.075,7.374c-3.855,3.922 -8.236,7.307 -13.02,10.062c-4.725,2.7 -9.781,4.795 -15.045,6.233c-4.07,1.047 -8.215,1.782 -12.399,2.2c-3.997,0.386 -8.015,0.509 -12.028,0.367c-2.506,-0.069 -5.005,-0.3 -7.481,-0.692c-3.484,-0.485 -6.925,-1.234 -10.291,-2.241c-6.792,-1.963 -13.214,-5.004 -19.013,-9.003c-5.244,-3.682 -9.885,-8.133 -13.763,-13.199c-4.072,-5.372 -7.355,-11.283 -9.754,-17.558c-2.002,-5.218 -3.577,-10.585 -4.712,-16.05c-0.413,-1.955 -0.744,-4.074 -1.116,-5.947c0,-0.57 -0.289,-1.1 -0.413,-1.67c-0.372,-2.2 -0.744,-4.4 -1.033,-6.6c-0.413,-2.852 -0.744,-5.744 -1.074,-8.636c0,-1.67 -0.289,-3.34 -0.413,-5.01c-0.248,-2.77 -0.331,-5.54 -0.413,-8.148c-0.083,-2.607 0,-5.215 0,-7.781l0,-1.182c-0.077,-0.132 -0.146,-0.268 -0.207,-0.407l0,-3.422c0.176,-0.283 0.275,-0.605 0.289,-0.937c-0.02,-0.298 -0.02,-0.598 0,-0.897c0.098,-1.172 0.542,-2.289 1.276,-3.216c0.734,-0.926 1.727,-1.621 2.857,-1.998c0.81,-0.277 1.663,-0.415 2.521,-0.407l42.075,0c0.356,0.059 0.719,0.059 1.075,0l0,-0.897c0.27,-2.342 0.84,-4.642 1.695,-6.844c1.48,-4.042 3.783,-7.743 6.769,-10.874c2.985,-3.132 6.589,-5.628 10.59,-7.335c3.449,-1.502 7.146,-2.371 10.911,-2.566l5.91,-0c4.114,0.465 8.092,1.739 11.697,3.748c7.049,3.819 12.377,10.118 14.921,17.64l0.372,1.018c0.413,0 0.579,-0.489 0.827,-0.774l15.003,-17.191c2.197,-2.563 5.299,-4.208 8.679,-4.603c0.206,0.018 0.414,0.018 0.62,0l2.521,0c2.557,0.432 5.002,1.359 7.192,2.729l0.62,0.449l-0.62,0.774l-13.391,15.724l-27.196,31.938c-0.703,0.815 -1.405,1.63 -2.149,2.363c-3.818,3.825 -8.555,6.635 -13.771,8.171c-5.216,1.535 -10.741,1.746 -16.062,0.612c-5.32,-1.134 -10.264,-3.576 -14.37,-7.099c-4.106,-3.523 -7.242,-8.011 -9.115,-13.049c0,-0.244 0,-0.488 -0.33,-0.774l-35.008,0c-0.76,0.05 -1.504,0.244 -2.19,0.57c-0.38,0.157 -0.702,0.424 -0.923,0.766c-0.222,0.342 -0.332,0.743 -0.317,1.148c0,4.644 0,9.247 0.248,13.851c0,3.34 0.455,6.681 0.827,10.021c0.59,4.962 1.473,9.886 2.645,14.747c1.611,6.983 4.126,13.732 7.481,20.084c2.72,5.138 6.203,9.847 10.333,13.972c5.764,5.686 12.862,9.884 20.666,12.221c3.508,1.078 7.125,1.775 10.787,2.078c2.273,0 4.588,0.245 6.861,0.245c2.762,0.042 5.523,-0.094 8.266,-0.407c4.116,-0.473 8.164,-1.402 12.069,-2.77c5.265,-1.868 10.16,-4.625 14.466,-8.147c5.122,-4.367 9.417,-9.595 12.689,-15.44l0.207,-0.448l-0.785,-0.489c-7.227,-3.885 -12.681,-10.338 -15.251,-18.047c-0.055,-0.273 -0.183,-0.526 -0.372,-0.733c-0.413,0.407 -0.744,0.855 -1.116,1.262c-4.877,5.581 -9.754,11.203 -14.672,16.784c-1.888,2.216 -4.481,3.738 -7.357,4.318c-1.597,0.305 -3.238,0.305 -4.835,0c-2.518,-0.522 -4.915,-1.503 -7.068,-2.892l-0.289,-0.285c0.289,-0.285 0.496,-0.57 0.744,-0.855l13.102,-15.399c6.117,-7.129 12.4,-14.299 18.31,-21.468c3.265,-3.83 6.489,-7.699 9.795,-11.488c5.39,-6.238 13.047,-10.144 21.327,-10.877c3.471,-0.354 6.977,-0.133 10.374,0.652c5.27,1.214 10.145,3.717 14.175,7.276c4.03,3.56 7.087,8.062 8.887,13.093c0.867,2.207 1.41,4.525 1.612,6.884c-0.019,0.162 -0.019,0.327 0,0.489l0.455,6.478Zm-14.176,-3.341c0,-3.499 -1.053,-6.918 -3.026,-9.827c-1.972,-2.908 -4.777,-5.175 -8.057,-6.512c-3.28,-1.337 -6.889,-1.685 -10.37,-0.999c-3.481,0.685 -6.677,2.373 -9.184,4.85c-2.507,2.477 -4.212,5.63 -4.899,9.063c-0.688,3.432 -0.327,6.989 1.038,10.218c1.364,3.23 3.67,5.988 6.625,7.926c2.955,1.938 6.427,2.967 9.977,2.959c2.354,0 4.685,-0.457 6.858,-1.346c2.174,-0.889 4.149,-2.192 5.811,-3.835c1.662,-1.642 2.98,-3.591 3.877,-5.736c0.897,-2.145 1.356,-4.443 1.35,-6.763Zm-53.235,-44.281c0,-3.497 -1.052,-6.915 -3.023,-9.822c-1.971,-2.907 -4.772,-5.174 -8.05,-6.512c-3.278,-1.338 -6.885,-1.688 -10.364,-1.006c-3.48,0.682 -6.676,2.366 -9.184,4.839c-2.509,2.473 -4.217,5.623 -4.909,9.053c-0.692,3.43 -0.337,6.985 1.02,10.215c1.358,3.231 3.657,5.992 6.607,7.935c2.95,1.943 6.417,2.979 9.965,2.979c2.357,0.005 4.692,-0.448 6.871,-1.335c2.179,-0.887 4.158,-2.189 5.825,-3.832c1.667,-1.642 2.988,-3.594 3.887,-5.741c0.9,-2.147 1.36,-4.449 1.355,-6.772Z" style="fill:#004876;fill-rule:nonzero;"/></g></svg>